# xmcd
#
# Track frame offsets:
#	150
#	14384
#	26602
#	39453
#	50972
#	64715
#	77911
#	91313
#	103200
#	115061
#	127366
#	141625
#	153535
#	167370
#	181984
#	194517
#	206105
#	217953
#	233141
#	246340
#	256047
#	265385
#	277170
#	289545
#	299194
#	308463
#
# Disc length: 4241 seconds
# Revision: 0
# Processed by: cddbd v1.5.2PL0 Copyright (c) Steve Scherf et al.
# Submitted via: dBpowerAMP V12.0
#
DISCID=97108f1a
DTITLE=Bill Monroe - The Father Of Bluegrass
DYEAR=2011
DGENRE=Bluegrass
TTITLE0=What Would You Give In Exchange?
TTITLE1=Mule Skinner Blues
TTITLE2=Blue Yodel No. 7
TTITLE3=Rocky Road Blues
TTITLE4=Blue Yodel No. 4
TTITLE5=My Rose Of Old Kentucky
TTITLE6=Little Cabin Home On The Hill
TTITLE7=Wicked Path Of Sin
TTITLE8=Blue Grass Breakdown
TTITLE9=Molly And Tenbrooks
TTITLE10=Travelin' This Lonely Road
TTITLE11=Uncle Pen
TTITLE12=My Little Georgia Home
TTITLE13=Kentucky Waltz
TTITLE14=I'll Meet You In Church Sunday Morning
TTITLE15=Rawhide
TTITLE16=Footprints In The Snow
TTITLE17=In The Pines
TTITLE18=Memories Of Mother And Dad
TTITLE19=Get Up John
TTITLE20=Blue Moon Of Kentucky
TTITLE21=Roanoke
TTITLE22=On And On
TTITLE23=A Fallen Star
TTITLE24=Panhandle Country
TTITLE25=Lonesome Wind Blues
EXTD=
EXTT0=
EXTT1=
EXTT2=
EXTT3=
EXTT4=
EXTT5=
EXTT6=
EXTT7=
EXTT8=
EXTT9=
EXTT10=
EXTT11=
EXTT12=
EXTT13=
EXTT14=
EXTT15=
EXTT16=
EXTT17=
EXTT18=
EXTT19=
EXTT20=
EXTT21=
EXTT22=
EXTT23=
EXTT24=
EXTT25=
PLAYORDER=
